<?xml version="1.0" encoding="utf-8"?>
<svg version="1.1" xmlns:xlink="http://www.w3.org/1999/xlink" width="32px" height="31px" xmlns="http://www.w3.org/2000/svg">
  <g transform="matrix(1 0 0 1 -4020 -1528 )">
    <path d="M 24.25 28.151875  C 24.493589743589745 27.906458333333333  24.615384615384617 27.61583333333333  24.615384615384617 27.28  C 24.615384615384617 26.944166666666668  24.493589743589745 26.65354166666667  24.25 26.408125  C 24.00641025641026 26.16270833333333  23.717948717948723 26.04  23.384615384615383 26.04  C 23.05128205128205 26.04  22.762820512820515 26.16270833333333  22.51923076923077 26.408125  C 22.27564102564103 26.65354166666667  22.153846153846153 26.944166666666668  22.153846153846153 27.28  C 22.153846153846153 27.61583333333333  22.27564102564103 27.906458333333333  22.51923076923077 28.151875  C 22.762820512820515 28.397291666666668  23.05128205128205 28.52  23.384615384615383 28.52  C 23.717948717948723 28.52  24.00641025641026 28.397291666666668  24.25 28.151875  Z M 29.173076923076923 28.151875  C 29.416666666666664 27.906458333333333  29.53846153846154 27.61583333333333  29.53846153846154 27.28  C 29.53846153846154 26.944166666666668  29.416666666666664 26.65354166666667  29.173076923076923 26.408125  C 28.929487179487182 26.16270833333333  28.641025641025642 26.04  28.307692307692307 26.04  C 27.974358974358974 26.04  27.685897435897438 26.16270833333333  27.442307692307693 26.408125  C 27.198717948717952 26.65354166666667  27.076923076923077 26.944166666666668  27.076923076923077 27.28  C 27.076923076923077 27.61583333333333  27.198717948717952 27.906458333333333  27.442307692307693 28.151875  C 27.685897435897438 28.397291666666668  27.974358974358974 28.52  28.307692307692307 28.52  C 28.641025641025642 28.52  28.929487179487182 28.397291666666668  29.173076923076923 28.151875  Z M 31.46153846153846 21.6225  C 31.82051282051282 21.98416666666666  32 22.423333333333332  32 22.94  L 32 29.139999999999997  C 32 29.656666666666666  31.82051282051282 30.09583333333333  31.46153846153846 30.4575  C 31.102564102564106 30.819166666666668  30.66666666666667 31  30.153846153846153 31  L 1.8461538461538463 31  C 1.3333333333333335 31  0.8974358974358976 30.819166666666668  0.5384615384615384 30.4575  C 0.17948717948717946 30.09583333333333  0 29.656666666666666  0 29.139999999999997  L 0 22.94  C 0 22.423333333333332  0.17948717948717946 21.98416666666666  0.5384615384615384 21.6225  C 0.8974358974358976 21.260833333333334  1.3333333333333335 21.08  1.8461538461538463 21.08  L 10.057692307692308 21.08  C 10.326923076923077 21.803333333333335  10.778846153846153 22.397499999999997  11.413461538461538 22.8625  C 12.048076923076923 23.327499999999997  12.756410256410257 23.56  13.538461538461538 23.56  L 18.46153846153846 23.56  C 19.243589743589745 23.56  19.951923076923077 23.327499999999997  20.58653846153846 22.8625  C 21.221153846153847 22.397499999999997  21.673076923076923 21.803333333333335  21.942307692307693 21.08  L 30.153846153846153 21.08  C 30.66666666666667 21.08  31.102564102564106 21.260833333333334  31.46153846153846 21.6225  Z M 25.48076923076923 9.048125  C 25.87820512820513 9.435624999999998  25.967948717948723 9.88125  25.75 10.384999999999998  C 25.532051282051285 10.901666666666664  25.153846153846153 11.16  24.615384615384617 11.16  L 19.692307692307693 11.16  L 19.692307692307693 19.84  C 19.692307692307693 20.17583333333333  19.57051282051282 20.466458333333332  19.326923076923077 20.711875000000003  C 19.083333333333336 20.957291666666666  18.794871794871796 21.08  18.46153846153846 21.08  L 13.538461538461538 21.08  C 13.205128205128206 21.08  12.916666666666668 20.957291666666666  12.673076923076923 20.711875000000003  C 12.42948717948718 20.466458333333332  12.307692307692308 20.17583333333333  12.307692307692308 19.84  L 12.307692307692308 11.16  L 7.384615384615385 11.16  C 6.846153846153846 11.16  6.467948717948719 10.901666666666664  6.25 10.384999999999998  C 6.032051282051283 9.88125  6.121794871794872 9.435624999999998  6.519230769230769 9.048125  L 15.134615384615385 0.36812499999999904  C 15.365384615384615 0.12270833333333186  15.653846153846153 0  16 0  C 16.346153846153847 0  16.634615384615383 0.12270833333333186  16.865384615384617 0.36812499999999904  L 25.48076923076923 9.048125  Z " fill-rule="nonzero" fill="#000000" stroke="none" transform="matrix(1 0 0 1 4020 1528 )" />
  </g>
</svg>